<?xml version="1.0" encoding="UTF-8"?>
<svg id="Calque_1" data-name="Calque 1" xmlns="http://www.w3.org/2000/svg" viewBox="0 0 944.72 416.38">
  <defs>
    <style>
      .cls-1 {
        fill: #fff;
        stroke-width: 0px;
      }
    </style>
  </defs>
  <g id="polygon5">
    <polygon class="cls-1" points="0 231.85 165.05 231.85 165.05 314.55 247.4 314.55 247.4 165.1 82.65 165.1 247.4 0 165.05 0 0 165.1 0 231.85"/>
  </g>
  <g id="polygon7">
    <polygon class="cls-1" points="282.95 82.65 365.35 0 282.95 0 282.95 82.65"/>
  </g>
  <g id="polygon9">
    <polygon class="cls-1" points="365.35 82.65 282.95 165.1 282.95 247.5 365.35 247.5 365.35 165.1 448 82.65 448 0 365.35 0 365.35 82.65"/>
  </g>
  <g id="polygon11">
    <polygon class="cls-1" points="448 165.1 365.35 247.5 448 247.5 448 165.1"/>
  </g>
  <g>
    <path class="cls-1" d="m264.53,415.06v-156.64h29.8c6.53,0,12.1,1.1,16.7,3.3,4.6,2.2,8.37,5.14,11.3,8.8,2.93,3.67,5.03,7.89,6.3,12.65,1.27,4.77,1.9,9.72,1.9,14.85v5.72c0,4.26-.3,7.85-.9,10.78-.6,2.94-1.5,5.5-2.7,7.7-2.27,4.11-5.73,7.63-10.4,10.56,4.8,2.5,8.33,6.16,10.6,11,2.27,4.84,3.4,11.44,3.4,19.8v8.8c0,13.79-3.03,24.35-9.1,31.68-6.07,7.34-15.77,11-29.1,11h-27.8Zm20.4-135.52v43.12h9.2c6.8,0,11.37-1.87,13.7-5.61,2.33-3.74,3.5-9.2,3.5-16.39s-1.3-12.32-3.9-15.84c-2.6-3.52-7.3-5.28-14.1-5.28h-8.4Zm0,62.92v50.16h8.8c4.13,0,7.37-.66,9.7-1.98,2.33-1.32,4.1-3.15,5.3-5.5,1.2-2.34,1.93-5.13,2.2-8.36.27-3.22.4-6.74.4-10.56s-.2-7.4-.6-10.34c-.4-2.93-1.2-5.42-2.4-7.48-1.33-2.05-3.13-3.55-5.4-4.51-2.27-.95-5.27-1.43-9-1.43h-9Z"/>
    <path class="cls-1" d="m339.73,415.06v-156.64h20.4v134.2h40.4v22.44h-60.8Z"/>
    <path class="cls-1" d="m402.53,295.38c0-6.3,1-11.88,3-16.72,2-4.84,4.67-8.87,8-12.1,3.2-3.08,6.83-5.42,10.9-7.04,4.07-1.61,8.17-2.42,12.3-2.42s8.23.81,12.3,2.42c4.07,1.62,7.77,3.96,11.1,7.04,3.2,3.23,5.8,7.26,7.8,12.1,2,4.84,3,10.42,3,16.72v82.72c0,6.6-1,12.25-3,16.94-2,4.7-4.6,8.58-7.8,11.66-3.33,3.23-7.03,5.65-11.1,7.26-4.07,1.61-8.17,2.42-12.3,2.42s-8.23-.81-12.3-2.42c-4.07-1.61-7.7-4.03-10.9-7.26-3.33-3.08-6-6.96-8-11.66-2-4.69-3-10.34-3-16.94v-82.72Zm20.4,82.72c0,5.43,1.37,9.43,4.1,11.99,2.73,2.57,5.96,3.85,9.7,3.85s6.97-1.28,9.7-3.85c2.73-2.56,4.1-6.56,4.1-11.99v-82.72c0-5.42-1.37-9.42-4.1-11.99-2.73-2.56-5.97-3.85-9.7-3.85s-6.97,1.29-9.7,3.85c-2.73,2.57-4.1,6.57-4.1,11.99v82.72Z"/>
    <path class="cls-1" d="m543.73,370.4v9.68c0,4.84-.83,9.43-2.5,13.75-1.67,4.33-3.97,8.18-6.9,11.55-2.93,3.38-6.37,6.05-10.3,8.03-3.93,1.98-8.17,2.97-12.7,2.97-3.87,0-7.8-.59-11.8-1.76-4-1.17-7.6-3.22-10.8-6.16-3.2-2.93-5.83-6.71-7.9-11.33-2.07-4.62-3.1-10.52-3.1-17.71v-86.24c0-5.13.8-9.9,2.4-14.3,1.6-4.4,3.87-8.21,6.8-11.44,2.93-3.22,6.43-5.75,10.5-7.59,4.07-1.83,8.57-2.75,13.5-2.75,9.6,0,17.4,3.45,23.4,10.34,2.93,3.38,5.23,7.37,6.9,11.99,1.67,4.62,2.5,9.65,2.5,15.07v8.8h-20.4v-7.48c0-4.4-1.13-8.21-3.4-11.44-2.27-3.22-5.33-4.84-9.2-4.84-5.07,0-8.43,1.73-10.1,5.17-1.67,3.45-2.5,7.81-2.5,13.09v80.08c0,4.55.9,8.36,2.7,11.44s5.03,4.62,9.7,4.62c1.33,0,2.77-.25,4.3-.77,1.53-.51,2.97-1.35,4.3-2.53,1.2-1.17,2.2-2.78,3-4.84.8-2.05,1.2-4.62,1.2-7.7v-7.7h20.4Z"/>
    <path class="cls-1" d="m550.33,415.06v-156.64h20.4v71.5h.4l29.8-71.5h20.4l-27.8,62.7,33,93.94h-21.6l-23.2-69.52-11,22.66v46.86h-20.4Z"/>
    <path class="cls-1" d="m690.33,370.4v9.68c0,4.84-.83,9.43-2.5,13.75-1.67,4.33-3.97,8.18-6.9,11.55-2.93,3.38-6.37,6.05-10.3,8.03-3.93,1.98-8.17,2.97-12.7,2.97-3.87,0-7.8-.59-11.8-1.76-4-1.17-7.6-3.22-10.8-6.16-3.2-2.93-5.83-6.71-7.9-11.33-2.07-4.62-3.1-10.52-3.1-17.71v-86.24c0-5.13.8-9.9,2.4-14.3,1.6-4.4,3.87-8.21,6.8-11.44,2.93-3.22,6.43-5.75,10.5-7.59,4.07-1.83,8.57-2.75,13.5-2.75,9.6,0,17.4,3.45,23.4,10.34,2.93,3.38,5.23,7.37,6.9,11.99,1.67,4.62,2.5,9.65,2.5,15.07v8.8h-20.4v-7.48c0-4.4-1.13-8.21-3.4-11.44-2.27-3.22-5.33-4.84-9.2-4.84-5.07,0-8.43,1.73-10.1,5.17-1.67,3.45-2.5,7.81-2.5,13.09v80.08c0,4.55.9,8.36,2.7,11.44s5.03,4.62,9.7,4.62c1.33,0,2.77-.25,4.3-.77,1.53-.51,2.97-1.35,4.3-2.53,1.2-1.17,2.2-2.78,3-4.84.8-2.05,1.2-4.62,1.2-7.7v-7.7h20.4Z"/>
    <path class="cls-1" d="m696.93,415.06v-156.64h20.4v67.1h25.2v-67.1h20.4v156.64h-20.4v-69.74h-25.2v69.74h-20.4Z"/>
    <path class="cls-1" d="m762.93,415.06l31.8-156.64h17l31.8,156.64h-20.4l-6-33.66h-27.8l-6,33.66h-20.4Zm50.4-54.78l-10-56.76h-.4l-10,56.76h20.4Z"/>
    <path class="cls-1" d="m844.13,415.06v-156.64h20.4v156.64h-20.4Z"/>
    <path class="cls-1" d="m873.52,415.06v-156.64h19.6l30.8,94.38h.4v-94.38h20.4v156.64h-19.2l-31.2-94.16h-.4v94.16h-20.4Z"/>
  </g>
</svg>